<svg xmlns="http://www.w3.org/2000/svg" viewBox="0 0 1200 900">
  <defs><pattern id="ht8" width="11" height="11" patternUnits="userSpaceOnUse"><circle cx="5.5" cy="5.5" r="3.3" fill="#1A1A1A" opacity="0.5"/></pattern></defs>
  <rect width="1200" height="900" fill="#2A5C8A"/><rect x="6" y="6" width="1188" height="888" fill="none" stroke="#1A1A1A" stroke-width="8"/>
  <rect x="0" y="0" width="1200" height="900" fill="url(#ht8)" opacity="0.16"/>
  <rect x="120" y="460" width="80" height="180" fill="#F2C744" stroke="#1A1A1A" stroke-width="6"/><rect x="250" y="380" width="80" height="260" fill="#D63C1E" stroke="#1A1A1A" stroke-width="6"/><rect x="380" y="420" width="80" height="220" fill="#F2C744" stroke="#1A1A1A" stroke-width="6"/><rect x="510" y="300" width="80" height="340" fill="#D63C1E" stroke="#1A1A1A" stroke-width="6"/><rect x="640" y="340" width="80" height="300" fill="#F2C744" stroke="#1A1A1A" stroke-width="6"/><rect x="770" y="220" width="80" height="420" fill="#D63C1E" stroke="#1A1A1A" stroke-width="6"/>
  <path d="M160,500 C300,440 440,560 580,400 C720,260 860,340 1000,220" fill="none" stroke="#1A1A1A" stroke-width="7" stroke-linecap="round"/>
  
  <rect x="36" y="796" width="313" height="40" fill="#1A1A1A"/>
  <text x="50" y="822" font-family="Anton, sans-serif" font-size="26" fill="#F5E6A8" letter-spacing="0.02em">CONVERSION TRACKING</text>
  <text x="50" y="852" font-family="JetBrains Mono, monospace" font-size="14" font-weight="700" fill="#D63C1E">ANALYTICS — RATE OVER REVENUE</text>
</svg>
