<svg xmlns="http://www.w3.org/2000/svg" viewBox="0 0 1200 900">
  <defs><pattern id="ht6" width="11" height="11" patternUnits="userSpaceOnUse"><circle cx="5.5" cy="5.5" r="3.3" fill="#1A1A1A" opacity="0.5"/></pattern></defs>
  <rect width="1200" height="900" fill="#F2C744"/><rect x="6" y="6" width="1188" height="888" fill="none" stroke="#1A1A1A" stroke-width="8"/>
  <rect x="0" y="0" width="1200" height="900" fill="url(#ht6)" opacity="0.18"/>
  <rect x="90" y="120" width="240" height="120" fill="#FFFDF6" stroke="#1A1A1A" stroke-width="6"/><rect x="360" y="120" width="240" height="120" fill="#D63C1E" stroke="#1A1A1A" stroke-width="6"/><rect x="630" y="120" width="240" height="120" fill="#FFFDF6" stroke="#1A1A1A" stroke-width="6"/><rect x="900" y="120" width="240" height="120" fill="#D63C1E" stroke="#1A1A1A" stroke-width="6"/><rect x="90" y="270" width="240" height="120" fill="#D63C1E" stroke="#1A1A1A" stroke-width="6"/><rect x="360" y="270" width="240" height="120" fill="#FFFDF6" stroke="#1A1A1A" stroke-width="6"/><rect x="630" y="270" width="240" height="120" fill="#D63C1E" stroke="#1A1A1A" stroke-width="6"/><rect x="900" y="270" width="240" height="120" fill="#FFFDF6" stroke="#1A1A1A" stroke-width="6"/><rect x="90" y="420" width="240" height="120" fill="#FFFDF6" stroke="#1A1A1A" stroke-width="6"/><rect x="360" y="420" width="240" height="120" fill="#D63C1E" stroke="#1A1A1A" stroke-width="6"/><rect x="630" y="420" width="240" height="120" fill="#FFFDF6" stroke="#1A1A1A" stroke-width="6"/><rect x="900" y="420" width="240" height="120" fill="#D63C1E" stroke="#1A1A1A" stroke-width="6"/><rect x="90" y="570" width="240" height="120" fill="#D63C1E" stroke="#1A1A1A" stroke-width="6"/><rect x="360" y="570" width="240" height="120" fill="#FFFDF6" stroke="#1A1A1A" stroke-width="6"/><rect x="630" y="570" width="240" height="120" fill="#D63C1E" stroke="#1A1A1A" stroke-width="6"/><rect x="900" y="570" width="240" height="120" fill="#FFFDF6" stroke="#1A1A1A" stroke-width="6"/>
  
  <rect x="36" y="796" width="253" height="40" fill="#1A1A1A"/>
  <text x="50" y="822" font-family="Anton, sans-serif" font-size="26" fill="#F5E6A8" letter-spacing="0.02em">CONTENT SYSTEMS</text>
  <text x="50" y="852" font-family="JetBrains Mono, monospace" font-size="14" font-weight="700" fill="#D63C1E">MEDIA — HOOKS &amp; CALENDARS</text>
</svg>
