<svg xmlns="http://www.w3.org/2000/svg" viewBox="0 0 1200 900">
  <defs><pattern id="ht9" width="11" height="11" patternUnits="userSpaceOnUse"><circle cx="5.5" cy="5.5" r="3.3" fill="#1A1A1A" opacity="0.5"/></pattern></defs>
  <rect width="1200" height="900" fill="#D63C1E"/><rect x="6" y="6" width="1188" height="888" fill="none" stroke="#1A1A1A" stroke-width="8"/>
  <rect x="0" y="0" width="1200" height="900" fill="url(#ht9)" opacity="0.14"/>
  <g stroke="#FFFDF6" stroke-width="4" opacity="0.7">
    <line x1="600" y1="420" x2="860.0" y2="420.0"/><line x1="600" y1="420" x2="810.3930870568884" y2="572.7571566856119"/><line x1="600" y1="420" x2="680.5019313948263" y2="667.2234597316822"/><line x1="600" y1="420" x2="519.891911867722" y2="667.3513578207954"/><line x1="600" y1="420" x2="389.8504689099794" y2="573.0920461116268"/><line x1="600" y1="420" x2="340.00032975083974" y2="420.4140897582866"/><line x1="600" y1="420" x2="389.3638906477602" y2="267.578120215793"/><line x1="600" y1="420" x2="519.1044295393906" y2="172.9050654508422"/><line x1="600" y1="420" x2="679.7140416719657" y2="172.52137150792169"/><line x1="600" y1="420" x2="809.9054420694272" y2="266.5734527872104"/>
  </g>
  <circle cx="860.0" cy="420.0" r="26" fill="#F2C744" stroke="#1A1A1A" stroke-width="5"/><circle cx="810.3930870568884" cy="572.7571566856119" r="18" fill="#FFFDF6" stroke="#1A1A1A" stroke-width="5"/><circle cx="680.5019313948263" cy="667.2234597316822" r="26" fill="#F2C744" stroke="#1A1A1A" stroke-width="5"/><circle cx="519.891911867722" cy="667.3513578207954" r="18" fill="#FFFDF6" stroke="#1A1A1A" stroke-width="5"/><circle cx="389.8504689099794" cy="573.0920461116268" r="26" fill="#F2C744" stroke="#1A1A1A" stroke-width="5"/><circle cx="340.00032975083974" cy="420.4140897582866" r="18" fill="#FFFDF6" stroke="#1A1A1A" stroke-width="5"/><circle cx="389.3638906477602" cy="267.578120215793" r="26" fill="#F2C744" stroke="#1A1A1A" stroke-width="5"/><circle cx="519.1044295393906" cy="172.9050654508422" r="18" fill="#FFFDF6" stroke="#1A1A1A" stroke-width="5"/><circle cx="679.7140416719657" cy="172.52137150792169" r="26" fill="#F2C744" stroke="#1A1A1A" stroke-width="5"/><circle cx="809.9054420694272" cy="266.5734527872104" r="18" fill="#FFFDF6" stroke="#1A1A1A" stroke-width="5"/>
  <circle cx="600" cy="420" r="50" fill="#1A1A1A" stroke="#FFFDF6" stroke-width="5"/>
  
  <rect x="36" y="796" width="238" height="40" fill="#1A1A1A"/>
  <text x="50" y="822" font-family="Anton, sans-serif" font-size="26" fill="#F5E6A8" letter-spacing="0.02em">CREATOR GROWTH</text>
  <text x="50" y="852" font-family="JetBrains Mono, monospace" font-size="14" font-weight="700" fill="#D63C1E">GROWTH — AUDIENCE TO SYSTEM</text>
</svg>
