<svg xmlns="http://www.w3.org/2000/svg" viewBox="0 0 1200 900">
  <defs><pattern id="ht1" width="11" height="11" patternUnits="userSpaceOnUse"><circle cx="5.5" cy="5.5" r="3.3" fill="#1A1A1A" opacity="0.5"/></pattern></defs>
  <rect width="1200" height="900" fill="#F2C744"/><rect x="6" y="6" width="1188" height="888" fill="none" stroke="#1A1A1A" stroke-width="8"/>
  <rect x="0" y="0" width="1200" height="900" fill="url(#ht1)" opacity="0.18"/>
  <g stroke="#1A1A1A" stroke-width="3" opacity="0.15">
    <line x1="900.0" y1="162.0" x2="1400.0" y2="162.0"/><line x1="900.0" y1="162.0" x2="1383.1949890672565" y2="290.5402759460776"/><line x1="900.0" y1="162.0" x2="1333.909589838825" y2="410.4400689218684"/><line x1="900.0" y1="162.0" x2="1255.4567690061385" y2="513.6397096002052"/><line x1="900.0" y1="162.0" x2="1153.1101286163891" y2="593.2021136216692"/><line x1="900.0" y1="162.0" x2="1033.7494143122938" y2="643.7790927085964"/><line x1="900.0" y1="162.0" x2="905.3980585291337" y2="661.9708601149832"/><line x1="900.0" y1="162.0" x2="776.683845015583" y2="646.5545644402282"/><line x1="900.0" y1="162.0" x2="656.2589488328204" y2="598.5664897537582"/><line x1="900.0" y1="162.0" x2="552.218336768549" y2="521.2323965345631"/><line x1="900.0" y1="162.0" x2="471.55562331552636" y2="419.7506859107321"/><line x1="900.0" y1="162.0" x2="419.6929595995238" y2="300.94296290829317"/><line x1="900.0" y1="162.0" x2="400.11655614353583" y2="172.79548786304798"/><line x1="900.0" y1="162.0" x2="414.1423396439689" y2="43.92233965155151"/><line x1="900.0" y1="162.0" x2="460.827496320563" y2="-77.01362306767143"/><line x1="900.0" y1="162.0" x2="537.03384789993" y2="-181.88307959198704"/><line x1="900.0" y1="162.0" x2="637.6388000963268" y2="-263.63670046778725"/><line x1="900.0" y1="162.0" x2="755.8796836235592" y2="-316.7790037246356"/><line x1="900.0" y1="162.0" x2="883.8083411201376" y2="-337.73776141364203"/><line x1="900.0" y1="162.0" x2="1012.8254026346979" y2="-325.10412492640455"/><line x1="900.0" y1="162.0" x2="1134.2583356501887" y2="-279.72732786007657"/><line x1="900.0" y1="162.0" x2="1239.9444130989286" y2="-204.65760049782824"/><line x1="900.0" y1="162.0" x2="1322.7794122330586" y2="-104.94113319582175"/><line x1="900.0" y1="162.0" x2="1377.195160788327" y2="12.719128753203222"/>
  </g>
  <!-- bold play/hook icon -->
  <circle cx="888.0" cy="306.0" r="170" fill="#D63C1E" stroke="#1A1A1A" stroke-width="8"/>
  <path d="M840.0,234.0 L840.0,378.0 L972.0000000000001,306.0 Z" fill="#FFFDF6" stroke="#1A1A1A" stroke-width="5" stroke-linejoin="round"/>
  <rect x="90" y="468.0" width="460" height="56" fill="#FFFDF6" stroke="#1A1A1A" stroke-width="6"/>
  <rect x="90" y="540.0" width="340" height="56" fill="#FFFDF6" stroke="#1A1A1A" stroke-width="6"/>
  <rect x="90" y="612.0" width="400" height="56" fill="#2D6E5E" stroke="#1A1A1A" stroke-width="6"/>
  
  <rect x="36" y="796" width="223" height="40" fill="#1A1A1A"/>
  <text x="50" y="822" font-family="Anton, sans-serif" font-size="26" fill="#F5E6A8" letter-spacing="0.02em">CREATOR HOOKS</text>
  <text x="50" y="852" font-family="JetBrains Mono, monospace" font-size="14" font-weight="700" fill="#D63C1E">MEDIA SYSTEM — 280K FOLLOWERS</text>
</svg>
