<svg xmlns="http://www.w3.org/2000/svg" viewBox="0 0 1200 900">
  <defs><pattern id="ht4" width="11" height="11" patternUnits="userSpaceOnUse"><circle cx="5.5" cy="5.5" r="3.3" fill="#1A1A1A" opacity="0.5"/></pattern></defs>
  <rect width="1200" height="900" fill="#D63C1E"/><rect x="6" y="6" width="1188" height="888" fill="none" stroke="#1A1A1A" stroke-width="8"/>
  <rect x="0" y="0" width="1200" height="900" fill="url(#ht4)" opacity="0.14"/>
  <!-- gear shapes -->
  <g transform="translate(432.0,360.0)">
    <circle r="140" fill="#F2C744" stroke="#1A1A1A" stroke-width="8"/>
    <rect x="-18" y="-170" width="36" height="50" fill="#F2C744" stroke="#1A1A1A" stroke-width="6" transform="rotate(0)"/><rect x="-18" y="-170" width="36" height="50" fill="#F2C744" stroke="#1A1A1A" stroke-width="6" transform="rotate(45)"/><rect x="-18" y="-170" width="36" height="50" fill="#F2C744" stroke="#1A1A1A" stroke-width="6" transform="rotate(90)"/><rect x="-18" y="-170" width="36" height="50" fill="#F2C744" stroke="#1A1A1A" stroke-width="6" transform="rotate(135)"/><rect x="-18" y="-170" width="36" height="50" fill="#F2C744" stroke="#1A1A1A" stroke-width="6" transform="rotate(180)"/><rect x="-18" y="-170" width="36" height="50" fill="#F2C744" stroke="#1A1A1A" stroke-width="6" transform="rotate(225)"/><rect x="-18" y="-170" width="36" height="50" fill="#F2C744" stroke="#1A1A1A" stroke-width="6" transform="rotate(270)"/><rect x="-18" y="-170" width="36" height="50" fill="#F2C744" stroke="#1A1A1A" stroke-width="6" transform="rotate(315)"/>
    <circle r="50" fill="#FFFDF6" stroke="#1A1A1A" stroke-width="6"/>
  </g>
  <g transform="translate(816.0000000000001,558.0)">
    <circle r="90" fill="#2D6E5E" stroke="#1A1A1A" stroke-width="7"/>
    <rect x="-12" y="-110" width="24" height="34" fill="#2D6E5E" stroke="#1A1A1A" stroke-width="5" transform="rotate(0)"/><rect x="-12" y="-110" width="24" height="34" fill="#2D6E5E" stroke="#1A1A1A" stroke-width="5" transform="rotate(60)"/><rect x="-12" y="-110" width="24" height="34" fill="#2D6E5E" stroke="#1A1A1A" stroke-width="5" transform="rotate(120)"/><rect x="-12" y="-110" width="24" height="34" fill="#2D6E5E" stroke="#1A1A1A" stroke-width="5" transform="rotate(180)"/><rect x="-12" y="-110" width="24" height="34" fill="#2D6E5E" stroke="#1A1A1A" stroke-width="5" transform="rotate(240)"/><rect x="-12" y="-110" width="24" height="34" fill="#2D6E5E" stroke="#1A1A1A" stroke-width="5" transform="rotate(300)"/>
    <circle r="32" fill="#FFFDF6" stroke="#1A1A1A" stroke-width="5"/>
  </g>
  
  <rect x="36" y="796" width="268" height="40" fill="#1A1A1A"/>
  <text x="50" y="822" font-family="Anton, sans-serif" font-size="26" fill="#F5E6A8" letter-spacing="0.02em">AUTOMATION BUILD</text>
  <text x="50" y="852" font-family="JetBrains Mono, monospace" font-size="14" font-weight="700" fill="#D63C1E">TECH SYSTEM — MULTI-PLATFORM CREATOR</text>
</svg>
