<svg xmlns="http://www.w3.org/2000/svg" viewBox="0 0 800 1000">
  <defs>
    <pattern id="dots_portrait-team-2" width="9" height="9" patternUnits="userSpaceOnUse">
      <circle cx="4.5" cy="4.5" r="2.88" fill="#1A1A1A"/>
    </pattern>
    <clipPath id="frame_portrait-team-2">
      <rect x="0" y="0" width="800" height="1000"/>
    </clipPath>
  </defs>

  <!-- background color block -->
  <rect width="800" height="1000" fill="#2A5C8A"/>

  <!-- halftone shading band, behind figure -->
  <rect x="0" y="80.0" width="800" height="620.0" fill="url(#dots_portrait-team-2)" opacity="0.14"/>

  <!-- radiating speed lines (comic energy) -->
  <g stroke="#1A1A1A" stroke-width="2" opacity="0.10">
    <line x1="400.0" y1="360.0" x2="1000.0" y2="360.0"/><line x1="400.0" y1="360.0" x2="970.663431961297" y2="545.3193120593593"/><line x1="400.0" y1="360.0" x2="885.5225085928193" y2="712.5165154283352"/><line x1="400.0" y1="360.0" x2="752.903038198825" y2="845.2416363318781"/><line x1="400.0" y1="360.0" x2="585.7736878342146" y2="930.515676303882"/><line x1="400.0" y1="360.0" x2="400.47779602643993" y2="959.9998097591008"/><line x1="400.0" y1="360.0" x2="215.13518123320458" y2="930.8108257402971"/><line x1="400.0" y1="360.0" x2="47.870230885684464" y2="845.8030729662985"/><line x1="400.0" y1="360.0" x2="-84.96045636158607" y2="713.2893371806772"/><line x1="400.0" y1="360.0" x2="-170.36755886174933" y2="546.227945803225"/><line x1="400.0" y1="360.0" x2="-199.9992390365237" y2="360.9555917498921"/><line x1="400.0" y1="360.0" x2="-170.95785754741462" y2="175.5897917552661"/><line x1="400.0" y1="360.0" x2="-86.0833292743996" y2="8.257200497983774"/><line x1="400.0" y1="360.0" x2="46.324587871074584" y2="-124.67896886024954"/><line x1="400.0" y1="360.0" x2="213.31791432167066" y2="-210.2190797288257"/><line x1="400.0" y1="360.0" x2="398.56661313263106" y2="-239.9982878326308"/><line x1="400.0" y1="360.0" x2="583.9554807814593" y2="-211.10452728941152"/><line x1="400.0" y1="360.0" x2="751.3556068368289" y2="-126.36327733940163"/><line x1="400.0" y1="360.0" x2="884.3971740063703" y2="5.938737201254696"/><line x1="400.0" y1="360.0" x2="970.0702389992672" y2="172.8638928284594"/>
  </g>

  <!-- shoulders / body block -->
  <path d="M96.0,860.0 C96.0,620.0 224.00000000000003,520.0 400.0,500.0
           C576.0,520.0 704.0,620.0 704.0,860.0 L704.0,1000 L96.0,1000 Z"
        fill="#F5E6A8" stroke="#1A1A1A" stroke-width="7"/>
  <path d="M96.0,860.0 C96.0,620.0 224.00000000000003,520.0 400.0,500.0
           C576.0,520.0 704.0,620.0 704.0,860.0 L704.0,920.0 L96.0,920.0 Z"
        fill="url(#dots_portrait-team-2)" opacity="0.18"/>

  <!-- collar line -->
  <path d="M320.0,550.0 L400.0,620.0 L480.0,550.0" fill="none" stroke="#1A1A1A" stroke-width="4" stroke-linejoin="round"/>

  <!-- head -->
  <circle cx="400.0" cy="360.0" r="160.0" fill="#FFFDF6" stroke="#1A1A1A" stroke-width="7"/>
  <circle cx="400.0" cy="360.0" r="160.0" fill="url(#dots_portrait-team-2)" opacity="0.10"/>

  <!-- simple comic face: brow + eyes + smile, suggested not literal -->
  <line x1="332.8" y1="340.8" x2="380.8" y2="331.2" stroke="#1A1A1A" stroke-width="5" stroke-linecap="round"/>
  <line x1="419.2" y1="331.2" x2="467.2" y2="340.8" stroke="#1A1A1A" stroke-width="5" stroke-linecap="round"/>
  <circle cx="358.4" cy="366.4" r="11.200000000000001" fill="#1A1A1A"/>
  <circle cx="441.6" cy="366.4" r="11.200000000000001" fill="#1A1A1A"/>
  <path d="M355.2,427.2 Q400.0,459.2 444.8,427.2" fill="none" stroke="#1A1A1A" stroke-width="5" stroke-linecap="round"/>

  <!-- monogram badge, lower corner -->
  <g transform="translate(608.0,800.0)">
    <circle r="68.0" fill="#D63C1E" stroke="#1A1A1A" stroke-width="5"/>
    <text x="0" y="24.0" text-anchor="middle" fill="#FFFDF6" font-family="Anton, sans-serif" font-size="60.0" letter-spacing="0.01em">RL</text>
  </g>

  <!-- thick frame border -->
  <rect x="4" y="4" width="792" height="992" fill="none" stroke="#1A1A1A" stroke-width="8"/>
</svg>
